<?xml version="1.0" encoding="UTF-8" standalone="no"?>
<!DOCTYPE svg PUBLIC "-//W3C//DTD SVG 1.1//EN" "http://www.w3.org/Graphics/SVG/1.1/DTD/svg11.dtd">
<svg width="100%" height="100%" viewBox="0 0 512 600" version="1.1" xmlns="http://www.w3.org/2000/svg" xmlns:xlink="http://www.w3.org/1999/xlink" xml:space="preserve" xmlns:serif="http://www.serif.com/" style="fill-rule:evenodd;clip-rule:evenodd;stroke-linejoin:round;stroke-miterlimit:2;">
    <g>
        <path d="M437.1,74.9C388.7,26.5 324.4,-0.1 256,-0.1C187.6,-0.1 123.3,26.5 74.9,74.9C26.5,123.3 -0.1,187.6 -0.1,256C-0.1,324.4 26.5,388.7 74.9,437.1C123.3,485.5 187.6,512.1 256,512.1C324.4,512.1 388.7,485.5 437.1,437.1C485.5,388.7 512.1,324.4 512.1,256C512.1,187.6 485.5,123.3 437.1,74.9ZM426.4,400.6C414.4,389.9 401.6,380.4 388.1,372.3C397,341.5 402.3,307.6 403.6,272.3L478.9,272.3C475.5,319.8 457.3,364.4 426.4,400.6ZM33.1,272.3L108.4,272.3C109.6,307.5 114.9,341.4 123.9,372.3C110.4,380.5 97.6,389.9 85.6,400.6C54.7,364.4 36.5,319.8 33.1,272.3ZM85.6,111.4C97.6,122.1 110.4,131.6 123.9,139.7C115,170.5 109.7,204.4 108.4,239.7L33.1,239.7C36.5,192.2 54.7,147.6 85.6,111.4ZM239.7,143.1C213.1,141.2 187.4,134.6 163.6,123.8C167.7,113.4 172.2,103.5 177.3,94.2C195,62 216.7,41.5 239.7,34.8L239.7,143.1ZM239.7,175.8L239.7,239.7L141.1,239.7C142.2,209.9 146.5,181.3 153.5,155.1C180.5,166.9 209.6,173.9 239.7,175.8ZM239.7,272.3L239.7,336.2C209.6,338.1 180.5,345.1 153.5,357C146.5,330.8 142.3,302.2 141.1,272.4L239.7,272.4L239.7,272.3ZM239.7,368.9L239.7,477.2C216.7,470.6 195,450 177.3,417.8C172.2,408.6 167.7,398.7 163.6,388.2C187.4,377.4 213.1,370.8 239.7,368.9ZM272.3,368.9C298.9,370.8 324.6,377.4 348.4,388.2C344.3,398.6 339.8,408.5 334.7,417.8C317,450.1 295.3,470.6 272.3,477.2L272.3,368.9ZM272.3,336.2L272.3,272.3L370.9,272.3C369.8,302.1 365.5,330.7 358.5,356.9C331.5,345.1 302.4,338.1 272.3,336.2ZM272.3,239.7L272.3,175.8C302.4,173.9 331.5,166.9 358.5,155C365.5,181.2 369.7,209.8 370.9,239.6L272.3,239.6L272.3,239.7ZM272.3,143.1L272.3,34.8C295.3,41.4 317,62 334.7,94.2C339.8,103.4 344.3,113.3 348.4,123.8C324.6,134.6 298.9,141.2 272.3,143.1ZM363.4,78.6C357.9,68.5 352,59.4 345.7,51.2C366.6,60.4 386.1,72.8 403.6,88.2C395.3,95.5 386.5,102.2 377.3,108.1C373.1,97.7 368.4,87.8 363.4,78.6ZM148.6,78.6C143.5,87.9 138.9,97.7 134.7,108.1C125.5,102.2 116.8,95.5 108.4,88.2C125.9,72.8 145.4,60.4 166.3,51.2C160.1,59.4 154.2,68.5 148.6,78.6ZM134.8,404C139,414.3 143.6,424.2 148.7,433.5C154.2,443.6 160.1,452.7 166.4,460.9C145.5,451.7 126,439.3 108.5,423.9C116.8,416.6 125.6,409.9 134.8,404ZM363.4,433.4C368.5,424.1 373.1,414.3 377.3,403.9C386.5,409.8 395.2,416.5 403.6,423.8C386.1,439.2 366.6,451.6 345.7,460.8C351.9,452.6 357.8,443.5 363.4,433.4ZM403.6,239.7C402.4,204.5 397.1,170.6 388.1,139.7C401.6,131.5 414.4,122.1 426.4,111.4C457.2,147.6 475.5,192.2 478.9,239.7L403.6,239.7Z" style="fill:white;fill-rule:nonzero;stroke:white;stroke-width:1px;"/>
        <g transform="matrix(1.37653,0,0,1.37653,-188.059,-187.891)">
            <circle cx="423.929" cy="423.485" r="75.529" style="fill:white;stroke:white;stroke-width:0.7px;stroke-linecap:round;stroke-miterlimit:1.5;"/>
        </g>
        <g transform="matrix(1.37653,0,0,1.37653,-188.059,-187.891)">
            <circle cx="423.929" cy="423.485" r="75.529" style="fill:white;"/>
        </g>
    </g>
    <g transform="matrix(1,0,0,1,282.064,-160.282)">
        <g id="Layer1">
            <text x="81.046px" y="637.878px" style="font-family:'AcmeFont';font-size:200px;">!</text>
        </g>
    </g>
</svg>
