<?xml version="1.0" encoding="UTF-8" standalone="no"?>
<!DOCTYPE svg PUBLIC "-//W3C//DTD SVG 1.1//EN" "http://www.w3.org/Graphics/SVG/1.1/DTD/svg11.dtd">
<svg width="100%" height="100%" viewBox="0 0 158 74" version="1.1" xmlns="http://www.w3.org/2000/svg" xmlns:xlink="http://www.w3.org/1999/xlink" xml:space="preserve" xmlns:serif="http://www.serif.com/" style="fill-rule:evenodd;clip-rule:evenodd;stroke-linejoin:round;stroke-miterlimit:2;">
    <g transform="matrix(1,0,0,1,-25.978,-63.409)">
        <g transform="matrix(1,0,0,1,62.2909,64.1461)">
            <path d="M0,23.062L0,0L5.657,0L5.657,18.175L13.957,18.175L13.957,23.062L0,23.062Z" style="fill:white;fill-rule:nonzero;"/>
        </g>
        <g transform="matrix(1,0,0,1,0,-461.383)">
            <path d="M79.06,548.591L84.382,548.591L84.382,532.993L79.06,532.993L79.06,548.591ZM81.705,524.792C83.479,524.792 84.885,526.098 84.885,527.805C84.885,529.479 83.479,530.851 81.705,530.851C79.964,530.851 78.491,529.479 78.491,527.805C78.491,526.098 79.964,524.792 81.705,524.792" style="fill:white;fill-rule:nonzero;"/>
        </g>
        <g transform="matrix(1,0,0,1,95.4953,83.6921)">
            <path d="M0,-1.036C1.774,-1.036 3.247,-2.509 3.247,-4.283C3.247,-6.057 1.774,-7.53 0,-7.53C-1.774,-7.53 -3.247,-6.057 -3.247,-4.283C-3.247,-2.509 -1.774,-1.036 0,-1.036M-3.849,4.52C-3.347,5.725 -2.042,6.595 -0.402,6.595C2.209,6.595 3.715,4.888 3.715,1.574C2.979,2.88 1.306,3.817 -1.071,3.817C-4.921,3.817 -8.669,0.737 -8.669,-4.317C-8.669,-9.371 -4.921,-12.484 -1.071,-12.484C0.502,-12.484 2.276,-11.781 3.247,-10.409L3.247,-12.082L8.569,-12.082L8.569,1.541C8.569,8.035 5.322,11.448 -0.402,11.448C-4.084,11.448 -7.13,9.307 -8.334,6.328L-3.849,4.52Z" style="fill:white;fill-rule:nonzero;"/>
        </g>
        <g transform="matrix(1,0,0,1,112.735,63.4091)">
            <path d="M0,23.799L-5.323,23.799L-5.323,0L0,0L0,10.645C0.535,8.67 3.012,7.8 4.385,7.8C8.569,7.8 10.61,10.645 10.61,15.498L10.61,23.799L5.288,23.799L5.288,15.666C5.288,13.825 3.849,12.954 2.744,12.954C1.539,12.954 0,13.624 0,15.599L0,23.799Z" style="fill:white;fill-rule:nonzero;"/>
        </g>
        <g transform="matrix(1,0,0,1,133.12,81.6179)">
            <path d="M0,-10.008L3.28,-10.008L3.28,-6.091L0,-6.091L0,5.59L-5.255,5.59L-5.255,-6.091L-8.101,-6.091L-8.101,-10.008L-5.255,-10.008L-5.255,-15.598L0,-15.598L0,-10.008Z" style="fill:white;fill-rule:nonzero;"/>
        </g>
        <g transform="matrix(1,0,0,1,68.0282,100.308)">
            <path d="M0,3.179L4.017,-9.942L10.108,-9.942L2.276,13.121L-2.042,13.121L-4.954,1.907L-7.766,13.121L-12.117,13.121L-19.883,-9.942L-13.824,-9.942L-9.841,3.179L-7.23,-6.628L-2.577,-6.628L0,3.179Z" style="fill:white;fill-rule:nonzero;"/>
        </g>
        <g transform="matrix(1,0,0,1,84.2966,102.315)">
            <path d="M0,6.528C1.774,6.528 3.247,5.055 3.247,3.281C3.247,1.507 1.774,0.034 0,0.034C-1.774,0.034 -3.246,1.507 -3.246,3.281C-3.246,5.055 -1.774,6.528 0,6.528M-8.267,3.281C-8.267,-1.673 -4.385,-4.886 0,-4.886C4.452,-4.886 8.369,-1.673 8.369,3.281C8.369,8.201 4.452,11.414 0,11.414C-4.385,11.414 -8.267,8.201 -8.267,3.281" style="fill:white;fill-rule:nonzero;"/>
        </g>
        <g transform="matrix(1,0,0,1,100.364,97.4283)">
            <path d="M0,16L-5.323,16L-5.323,0.401L-0.268,0.401L-0.268,4.251C0.535,1.272 2.644,0 4.652,0C5.322,0 6.092,0.034 6.962,0.435L5.657,5.456C4.552,5.054 3.715,5.054 3.246,5.054C1.238,5.054 0,6.192 0,10.878L0,16Z" style="fill:white;fill-rule:nonzero;"/>
        </g>
        <g transform="matrix(1,0,0,1,0,-408.943)">
            <rect x="108.866" y="498.572" width="5.322" height="23.799" style="fill:white;"/>
        </g>
        <g transform="matrix(1,0,0,1,124.766,94.483)">
            <path d="M0,14.393C1.774,14.393 3.247,12.92 3.247,11.146C3.247,9.372 1.774,7.9 0,7.9C-1.774,7.9 -3.247,9.372 -3.247,11.146C-3.247,12.92 -1.774,14.393 0,14.393M3.247,-4.853L8.569,-4.853L8.569,18.945L3.548,18.945L3.548,16.703C2.644,18.543 0.636,19.246 -1.071,19.246C-4.921,19.246 -8.669,16.167 -8.669,11.112C-8.669,6.059 -4.921,2.945 -1.071,2.945C0.803,2.945 2.242,3.682 3.247,4.786L3.247,-4.853Z" style="fill:white;fill-rule:nonzero;"/>
        </g>
        <g transform="matrix(1,0,0,1,32.835,99.6589)">
            <path d="M0,-9.301L0,-8.41L-2.983,-8.41L-2.983,0L-3.874,0L-3.874,-8.41L-6.857,-8.41L-6.857,-9.301L0,-9.301Z" style="fill:white;fill-rule:nonzero;"/>
        </g>
        <g transform="matrix(1,0,0,1,34.6836,89.9398)">
            <path d="M0,9.719L-0.905,9.719L-0.905,0L0,0L0,4.454C0.391,3.631 1.363,3.28 2.093,3.28C3.631,3.28 4.536,4.333 4.522,6.047L4.522,9.719L3.618,9.719L3.618,6.047C3.618,4.887 3.065,4.171 2.093,4.171C1.093,4.171 0,4.738 0,6.276L0,9.719Z" style="fill:white;fill-rule:nonzero;"/>
        </g>
        <g transform="matrix(1,0,0,1,45.4957,96.9458)">
            <path d="M0,-0.878C-0.176,-2.079 -1.012,-2.835 -2.173,-2.835C-3.348,-2.835 -4.266,-2.079 -4.441,-0.878L0,-0.878ZM-5.359,-0.459C-5.359,-2.458 -3.969,-3.726 -2.173,-3.726C-0.378,-3.726 0.918,-2.458 0.918,-0.459C0.918,-0.324 0.918,-0.162 0.905,-0.041L-4.441,-0.041C-4.279,1.187 -3.348,1.957 -2.173,1.957C-1.323,1.957 -0.594,1.552 -0.202,0.864C0.068,0.931 0.419,0.999 0.702,1.066C0.189,2.187 -0.905,2.848 -2.173,2.848C-3.969,2.848 -5.359,1.539 -5.359,-0.459" style="fill:white;fill-rule:nonzero;"/>
        </g>
        <g transform="matrix(-1,0,0,1,327.557,-425.869)">
            <rect x="163.093" y="492.308" width="1.371" height="53.253" style="fill:white;"/>
        </g>
        <g transform="matrix(-1,0,0,1,327.557,-363.97)">
            <rect x="163.093" y="486.258" width="1.371" height="3.454" style="fill:white;"/>
        </g>
        <g transform="matrix(-1,0,0,1,316.456,-431.803)">
            <rect x="138.345" y="521.216" width="39.766" height="1.371" style="fill:white;"/>
        </g>
        <g transform="matrix(-1,0,0,1,364.023,-431.803)">
            <rect x="180.683" y="521.216" width="2.657" height="1.371" style="fill:white;"/>
        </g>
        <g transform="matrix(-0.704182,-0.71002,-0.71002,0.704182,179.098,89.245)">
            <rect x="9.467" y="-3.944" width="1.351" height="29.911" style="fill:white;"/>
        </g>
        <g transform="matrix(-0.730192,-0.683243,-0.683243,0.730192,173.291,93.2476)">
            <rect x="-9.463" y="3.738" width="11.482" height="1.371" style="fill:white;"/>
        </g>
        <g transform="matrix(-0.722931,-0.69092,-0.69092,0.722931,162.118,80.3282)">
            <rect x="-13.225" y="5.303" width="15.901" height="1.371" style="fill:white;"/>
        </g>
        <g transform="matrix(-0.722642,-0.691223,-0.691223,0.722642,151.719,76.1406)">
            <rect x="-2.651" y="1.064" width="3.628" height="1.371" style="fill:white;"/>
        </g>
        <g transform="matrix(-0.712278,-0.701897,-0.701897,0.712278,155.215,80.4841)">
            <rect x="-1.003" y="0.411" width="1.734" height="1.37" style="fill:white;"/>
        </g>
        <g transform="matrix(1,0,0,1,84.4229,120.392)">
            <path d="M0,11.286L8.446,11.286L8.446,15.859L-5.24,15.859L-5.24,-4.573L0,-4.573L0,11.286Z" style="fill:white;fill-rule:nonzero;"/>
        </g>
        <g transform="matrix(1,0,0,1,105.691,128.439)">
            <path d="M0,0.033C0,-2.104 -1.535,-3.605 -3.439,-3.605C-5.342,-3.605 -6.877,-2.104 -6.877,0.033C-6.877,2.17 -5.342,3.639 -3.439,3.639C-1.535,3.639 0,2.17 0,0.033M-11.885,0.033C-11.885,-4.908 -7.878,-8.179 -3.439,-8.179C1.001,-8.179 5.041,-4.908 5.041,0.033C5.041,4.941 1.001,8.212 -3.439,8.212C-7.878,8.212 -11.885,4.941 -11.885,0.033" style="fill:white;fill-rule:nonzero;"/>
        </g>
        <g transform="matrix(1,0,0,1,122.317,136.251)">
            <path d="M0,-15.59L5.375,-15.59L-1.235,0L-5.541,0L-12.151,-15.59L-6.777,-15.59L-3.371,-6.309L0,-15.59Z" style="fill:white;fill-rule:nonzero;"/>
        </g>
        <g transform="matrix(1,0,0,1,138.877,129.909)">
            <path d="M0,-2.905C-0.067,-4.44 -1.435,-5.476 -3.205,-5.476C-4.674,-5.476 -6.109,-4.774 -6.61,-2.905L0,-2.905ZM4.841,0L-6.576,0C-6.109,1.501 -4.807,2.437 -2.938,2.437C-1.469,2.437 0.033,1.769 1.002,0.834L3.538,4.039C2.003,5.708 -0.668,6.743 -3.271,6.743C-8.212,6.743 -11.684,3.337 -11.684,-1.403C-11.684,-6.477 -7.778,-9.648 -3.304,-9.648C1.168,-9.648 4.908,-6.511 4.908,-1.769C4.908,-1.336 4.874,-0.768 4.841,0" style="fill:white;fill-rule:nonzero;"/>
        </g>
        <g transform="matrix(1,0,0,1,145.065,113.428)">
            <path d="M0,-6.039L1.216,-6.039L-1.034,0L-1.979,0L-3.647,-4.487L-5.251,0L-6.182,0L-8.484,-6.039L-7.268,-6.039L-5.729,-1.745L-4.19,-6.039L-3.09,-6.039L-1.539,-1.745L0,-6.039Z" style="fill:white;fill-rule:nonzero;"/>
        </g>
        <g transform="matrix(1,0,0,1,0,-394.158)">
            <path d="M147.202,501.547L148.327,501.547L148.327,507.586L147.202,507.586L147.202,501.547ZM146.969,499.322C146.969,498.895 147.331,498.572 147.758,498.572C148.198,498.572 148.56,498.895 148.56,499.322C148.56,499.749 148.198,500.072 147.758,500.072C147.331,500.072 146.969,499.749 146.969,499.322" style="fill:white;fill-rule:nonzero;"/>
        </g>
        <g transform="matrix(1,0,0,1,152.66,111.152)">
            <path d="M0,-3.763L0,-2.793L-1.306,-2.793L-1.306,2.276L-2.431,2.276L-2.431,-2.793L-3.518,-2.793L-3.518,-3.763L-2.431,-3.763L-2.431,-6.039L-1.306,-6.039L-1.306,-3.763L0,-3.763Z" style="fill:white;fill-rule:nonzero;"/>
        </g>
        <g transform="matrix(1,0,0,1,158.959,107.596)">
            <path d="M0,2.34L0,5.832L-1.125,5.832L-1.125,2.405C-1.125,1.396 -1.746,0.749 -2.587,0.749C-3.427,0.749 -4.436,1.253 -4.436,2.559L-4.436,5.832L-5.561,5.832L-5.561,-3.492L-4.436,-3.492L-4.436,0.71C-4.074,-0.027 -3.091,-0.364 -2.431,-0.364C-0.931,-0.364 0.013,0.646 0,2.34" style="fill:white;fill-rule:nonzero;"/>
        </g>
    </g>
</svg>
