<?xml version="1.0" encoding="UTF-8" standalone="no"?>
<!DOCTYPE svg PUBLIC "-//W3C//DTD SVG 1.1//EN" "http://www.w3.org/Graphics/SVG/1.1/DTD/svg11.dtd">
<svg width="100%" height="100%" viewBox="0 0 103 38" version="1.1" xmlns="http://www.w3.org/2000/svg" xmlns:xlink="http://www.w3.org/1999/xlink" xml:space="preserve" xmlns:serif="http://www.serif.com/" style="fill-rule:evenodd;clip-rule:evenodd;stroke-linejoin:round;stroke-miterlimit:2;">
    <g transform="matrix(1,0,0,1,1.18523,-31.0172)">
        <path d="M98.916,34.803C98.867,34.795 98.471,34.787 98.421,34.779C91.278,33.639 77.315,32.683 69.987,33.751C66.075,34.227 62.289,35.114 58.469,36.032C55.408,36.767 53.239,36.754 50.106,36.917L49.863,36.916C46.746,36.752 44.58,36.766 41.529,36.033C37.71,35.116 33.924,34.228 30.012,33.752C22.656,32.68 8.612,33.65 1.495,34.796C1.473,34.799 1.105,34.803 1.084,34.807C1.084,34.807 1.099,41.23 1.084,41.497C1.107,41.507 1.476,41.517 1.499,41.527C3.207,42.295 3.886,44.591 4.132,45.224C4.431,45.994 4.554,46.811 4.709,47.619C4.873,48.473 5.041,49.327 5.21,50.181C5.29,50.583 5.37,50.986 5.453,51.389C6.101,54.543 6.342,57.885 8.052,60.699C9.744,63.482 12.568,65.019 15.691,65.795C17.619,66.274 19.615,66.454 21.589,66.614C25.27,66.915 29.199,66.548 32.758,65.542C34.34,65.096 35.826,64.421 37.154,63.446C39.681,61.587 41.624,59.465 42.943,56.592C44.183,53.887 45.205,50.995 46.164,48.189C46.542,47.083 47.015,45.197 49.368,45.282L50.627,45.282C52.982,45.196 53.454,47.082 53.833,48.189C54.792,50.995 55.813,53.887 57.055,56.592C58.373,59.465 60.316,61.587 62.843,63.446C64.17,64.421 65.657,65.095 67.239,65.542C70.799,66.548 74.727,66.915 78.409,66.614C80.384,66.454 82.38,66.273 84.306,65.795C87.43,65.02 90.254,63.483 91.946,60.699C93.657,57.886 93.896,54.544 94.546,51.389C94.628,50.986 94.709,50.584 94.789,50.181C94.958,49.328 95.126,48.473 95.29,47.619C95.445,46.811 95.567,45.994 95.866,45.224C96.108,44.601 96.77,42.367 98.422,41.564C98.471,41.541 98.865,41.519 98.916,41.497C98.9,41.229 98.916,34.803 98.916,34.803ZM42.915,49.17C42.287,51.569 41.103,55.008 39.615,57.034C38.302,58.824 37.002,60.301 35.125,61.509C31.872,63.602 27.552,64.065 23.791,64.016C19.569,63.96 14.733,63.451 11.642,60.511C9.01,58.008 8.79,53.977 8.626,49.239C8.548,46.995 8.711,44.403 9.219,42.193C10.215,37.859 15.422,36.643 18.669,36.292C20.929,36.047 23.231,36.013 25.537,36.147C30.138,36.418 33.22,37.043 37.537,38.356C39.598,38.982 42.287,40.439 43.122,42.537C43.925,44.557 43.447,47.137 42.915,49.17ZM91.373,49.239C91.209,53.977 90.989,58.008 88.358,60.511C85.266,63.45 80.43,63.96 76.209,64.016C72.448,64.065 68.127,63.602 64.875,61.509C62.997,60.301 61.698,58.824 60.385,57.034C58.898,55.009 57.713,51.569 57.085,49.17C56.553,47.137 56.074,44.556 56.878,42.537C57.713,40.438 60.401,38.982 62.463,38.356C66.78,37.043 69.862,36.417 74.463,36.147C76.769,36.012 79.07,36.046 81.33,36.292C84.577,36.643 89.784,37.859 90.779,42.193C91.288,44.403 91.451,46.995 91.373,49.239Z" style="fill-rule:nonzero;stroke:black;stroke-width:4.54px;"/>
    </g>
</svg>
