<?xml version="1.0" encoding="UTF-8" standalone="no"?>
<!DOCTYPE svg PUBLIC "-//W3C//DTD SVG 1.1//EN" "http://www.w3.org/Graphics/SVG/1.1/DTD/svg11.dtd">
<svg width="100%" height="100%" viewBox="0 0 500 500" version="1.1" xmlns="http://www.w3.org/2000/svg" xmlns:xlink="http://www.w3.org/1999/xlink" xml:space="preserve" xmlns:serif="http://www.serif.com/" style="fill-rule:evenodd;clip-rule:evenodd;stroke-linejoin:round;stroke-miterlimit:1.5;">
    <g transform="matrix(0.877698,0,0,0.935407,80.8489,25.0024)">
        <path d="M334,172.292L334,74.52C334,50.501 313.217,31 287.618,31L102.382,31C76.783,31 56,50.501 56,74.52L56,405.48C56,429.499 76.783,449 102.382,449L287.618,449C313.217,449 334,429.499 334,405.48L334,344.718" style="fill:none;stroke:black;stroke-width:41.9px;"/>
    </g>
    <g transform="matrix(1,0,0,1,-13,19)">
        <path d="M56,164C76.952,164.625 110.784,174.073 140.327,178.662" style="fill:none;stroke:black;stroke-width:38px;"/>
    </g>
    <g transform="matrix(1,0,0,1,-13,88)">
        <path d="M56,164C76.952,164.625 110.784,174.073 140.327,178.662" style="fill:none;stroke:black;stroke-width:38px;"/>
    </g>
    <g transform="matrix(1,0,0,1,-16,153)">
        <path d="M56,164C76.952,164.625 110.784,174.073 140.327,178.662" style="fill:none;stroke:black;stroke-width:38px;"/>
    </g>
    <g transform="matrix(1,0,0,1,-13,19)">
        <path d="M199,180C234.508,180.313 277.5,155.667 315,155C351.996,154.342 401.167,172.167 424,176C433.228,177.549 445.743,177.85 452,178" style="fill:none;stroke:black;stroke-width:38px;stroke-linecap:square;"/>
    </g>
    <g transform="matrix(1,0,0,1,-13,85)">
        <path d="M199,180C234.508,180.313 277.5,155.667 315,155C351.996,154.342 401.167,172.167 424,176C433.228,177.549 445.743,177.85 452,178" style="fill:none;stroke:black;stroke-width:38px;stroke-linecap:square;"/>
    </g>
    <g transform="matrix(1,0,0,1,-13,151)">
        <path d="M199,180C234.508,180.313 277.5,155.667 315,155C351.996,154.342 401.167,172.167 424,176C433.228,177.549 445.743,177.85 452,178" style="fill:none;stroke:black;stroke-width:38px;stroke-linecap:square;"/>
    </g>
</svg>
