<?xml version="1.0" encoding="iso-8859-1"?>
<!-- Uploaded to: SVG Repo, www.svgrepo.com, Generator: SVG Repo Mixer Tools -->
<svg fill="#000000" height="800px" width="800px" version="1.1" id="Layer_1" xmlns="http://www.w3.org/2000/svg" xmlns:xlink="http://www.w3.org/1999/xlink" 
	 viewBox="0 0 512 512" xml:space="preserve">
<g>
	<g>
		<path d="M450.794,111.304C450.794,49.929,408.348,0,356.185,0s-94.609,49.929-94.609,111.304
			c0,54.663,33.697,100.144,77.913,109.462V256h-15.804c-9.217,0-16.495,7.473-16.495,16.696c0,5.236,0,180.806,0,189.217
			c0,27.619,22.268,50.087,49.887,50.087s50.276-22.468,50.276-50.087c0-8.682,0-184.037,0-189.217
			c0-9.223-7.668-16.696-16.885-16.696h-17.698v-35.233C416.985,211.448,450.794,165.967,450.794,111.304z M373.971,289.391v33.391
			H340.58v-33.391H373.971z"/>
	</g>
</g>
<g>
	<g>
		<path d="M219.236,1.924C216.929,0.7,214.299,0,211.493,0c-0.004,0-0.009,0-0.012,0c-0.004,0-0.009,0-0.012,0
			c-9.22,0-16.696,7.475-16.696,16.696v94.609h-33.477V16.696C161.296,7.473,153.928,0,144.711,0s-16.696,7.473-16.696,16.696
			v94.609H94.513V16.696C94.513,7.473,87.146,0,77.929,0S61.233,7.473,61.233,16.696L61.206,139.13
			c0,40.386,28.68,74.07,66.783,81.805V256h-16.696c-9.217,0-16.696,7.473-16.696,16.696c0,5.236,0,180.806,0,189.217
			c0,27.619,22.468,50.087,50.087,50.087c27.619,0,50.087-22.468,50.087-50.087c0-8.682,0-184.037,0-189.217
			c0-9.223-7.479-16.696-16.696-16.696H161.38v-35.064c38.103-7.735,66.783-41.42,66.783-81.805V16.696
			C228.163,10.282,224.542,4.72,219.236,1.924z M161.38,322.783h-33.391v-33.391h33.391V322.783z"/>
	</g>
</g>
</svg>